<mxfile host="app.diagrams.net" modified="2022-05-09T17:35:51.582Z" agent="5.0 (Windows NT 10.0; Win64; x64) AppleWebKit/537.36 (KHTML, like Gecko) Chrome/101.0.4951.54 Safari/537.36" etag="IBAN6SKT0JPOm5tUpuh7" version="18.0.2" type="github">
  <diagram id="0XhfBKjNk-TcLNIDxF9G" name="Page-1">
    <mxGraphModel dx="1185" dy="662" grid="1" gridSize="10" guides="1" tooltips="1" connect="1" arrows="1" fold="1" page="1" pageScale="1" pageWidth="827" pageHeight="1169" math="0" shadow="0">
      <root>
        <mxCell id="0" />
        <mxCell id="1" parent="0" />
        <mxCell id="hAHZ5cEmVnTdR4CNkjqM-2" value="Display" style="swimlane;" vertex="1" parent="1">
          <mxGeometry x="40" y="220" width="200" height="200" as="geometry">
            <mxRectangle x="40" y="220" width="80" height="23" as="alternateBounds" />
          </mxGeometry>
        </mxCell>
        <mxCell id="hAHZ5cEmVnTdR4CNkjqM-4" value="event" style="rounded=1;whiteSpace=wrap;html=1;" vertex="1" parent="hAHZ5cEmVnTdR4CNkjqM-2">
          <mxGeometry x="80" y="45" width="40" height="30" as="geometry" />
        </mxCell>
        <mxCell id="hAHZ5cEmVnTdR4CNkjqM-3" value="Kernel" style="swimlane;" vertex="1" parent="1">
          <mxGeometry x="560" y="220" width="200" height="200" as="geometry" />
        </mxCell>
        <mxCell id="hAHZ5cEmVnTdR4CNkjqM-34" value="subbed" style="text;html=1;strokeColor=none;fillColor=none;align=center;verticalAlign=middle;whiteSpace=wrap;rounded=0;" vertex="1" parent="hAHZ5cEmVnTdR4CNkjqM-3">
          <mxGeometry x="-30" y="50" width="60" height="30" as="geometry" />
        </mxCell>
        <mxCell id="hAHZ5cEmVnTdR4CNkjqM-43" value="" style="swimlane;startSize=0;" vertex="1" parent="hAHZ5cEmVnTdR4CNkjqM-3">
          <mxGeometry x="60" y="40" width="80" height="140" as="geometry" />
        </mxCell>
        <mxCell id="hAHZ5cEmVnTdR4CNkjqM-44" value="request handling" style="text;html=1;strokeColor=none;fillColor=none;align=center;verticalAlign=middle;whiteSpace=wrap;rounded=0;" vertex="1" parent="hAHZ5cEmVnTdR4CNkjqM-43">
          <mxGeometry x="10" y="45" width="60" height="30" as="geometry" />
        </mxCell>
        <mxCell id="hAHZ5cEmVnTdR4CNkjqM-42" value="event" style="rounded=1;whiteSpace=wrap;html=1;" vertex="1" parent="hAHZ5cEmVnTdR4CNkjqM-43">
          <mxGeometry x="20" y="100" width="40" height="30" as="geometry" />
        </mxCell>
        <mxCell id="hAHZ5cEmVnTdR4CNkjqM-6" value="Display&#xa;Provider" style="swimlane;startSize=30;" vertex="1" parent="1">
          <mxGeometry x="280" y="230" width="80" height="180" as="geometry" />
        </mxCell>
        <mxCell id="hAHZ5cEmVnTdR4CNkjqM-45" value="event" style="rounded=1;whiteSpace=wrap;html=1;" vertex="1" parent="hAHZ5cEmVnTdR4CNkjqM-6">
          <mxGeometry x="20" y="130" width="40" height="30" as="geometry" />
        </mxCell>
        <mxCell id="hAHZ5cEmVnTdR4CNkjqM-8" value="" style="endArrow=classic;html=1;rounded=0;exitX=1;exitY=0.5;exitDx=0;exitDy=0;" edge="1" parent="1" source="hAHZ5cEmVnTdR4CNkjqM-4">
          <mxGeometry width="50" height="50" relative="1" as="geometry">
            <mxPoint x="310" y="345" as="sourcePoint" />
            <mxPoint x="280" y="280" as="targetPoint" />
          </mxGeometry>
        </mxCell>
        <mxCell id="hAHZ5cEmVnTdR4CNkjqM-11" value="subbed" style="text;html=1;strokeColor=none;fillColor=none;align=center;verticalAlign=middle;whiteSpace=wrap;rounded=0;" vertex="1" parent="1">
          <mxGeometry x="210" y="270" width="60" height="30" as="geometry" />
        </mxCell>
        <mxCell id="hAHZ5cEmVnTdR4CNkjqM-13" value="Kernel&#xa;Provider" style="swimlane;startSize=30;" vertex="1" parent="1">
          <mxGeometry x="440" y="230" width="80" height="400" as="geometry" />
        </mxCell>
        <mxCell id="hAHZ5cEmVnTdR4CNkjqM-41" value="event" style="rounded=1;whiteSpace=wrap;html=1;" vertex="1" parent="hAHZ5cEmVnTdR4CNkjqM-13">
          <mxGeometry x="20" y="35" width="40" height="30" as="geometry" />
        </mxCell>
        <mxCell id="hAHZ5cEmVnTdR4CNkjqM-49" value="" style="endArrow=classic;html=1;rounded=0;" edge="1" parent="hAHZ5cEmVnTdR4CNkjqM-13">
          <mxGeometry width="50" height="50" relative="1" as="geometry">
            <mxPoint y="145" as="sourcePoint" />
            <mxPoint x="-80" y="145" as="targetPoint" />
          </mxGeometry>
        </mxCell>
        <mxCell id="hAHZ5cEmVnTdR4CNkjqM-17" value="" style="endArrow=none;dashed=1;html=1;dashPattern=1 3;strokeWidth=2;rounded=0;" edge="1" parent="1">
          <mxGeometry width="50" height="50" relative="1" as="geometry">
            <mxPoint x="400" y="680" as="sourcePoint" />
            <mxPoint x="400" y="160" as="targetPoint" />
          </mxGeometry>
        </mxCell>
        <mxCell id="hAHZ5cEmVnTdR4CNkjqM-18" value="" style="endArrow=classic;html=1;rounded=0;exitX=0;exitY=0.5;exitDx=0;exitDy=0;" edge="1" parent="1" source="hAHZ5cEmVnTdR4CNkjqM-42">
          <mxGeometry width="50" height="50" relative="1" as="geometry">
            <mxPoint x="620" y="380" as="sourcePoint" />
            <mxPoint x="520" y="375" as="targetPoint" />
          </mxGeometry>
        </mxCell>
        <mxCell id="hAHZ5cEmVnTdR4CNkjqM-21" value="Display" style="swimlane;" vertex="1" parent="1">
          <mxGeometry x="40" y="440" width="200" height="200" as="geometry">
            <mxRectangle x="40" y="220" width="80" height="23" as="alternateBounds" />
          </mxGeometry>
        </mxCell>
        <mxCell id="hAHZ5cEmVnTdR4CNkjqM-23" value="Display&#xa;Provider" style="swimlane;startSize=30;" vertex="1" parent="1">
          <mxGeometry x="280" y="450" width="80" height="180" as="geometry" />
        </mxCell>
        <mxCell id="hAHZ5cEmVnTdR4CNkjqM-27" value="" style="endArrow=classic;html=1;rounded=0;exitX=0;exitY=0.5;exitDx=0;exitDy=0;" edge="1" parent="hAHZ5cEmVnTdR4CNkjqM-23" source="hAHZ5cEmVnTdR4CNkjqM-46">
          <mxGeometry width="50" height="50" relative="1" as="geometry">
            <mxPoint y="150" as="sourcePoint" />
            <mxPoint x="-80" y="145" as="targetPoint" />
          </mxGeometry>
        </mxCell>
        <mxCell id="hAHZ5cEmVnTdR4CNkjqM-46" value="event" style="rounded=1;whiteSpace=wrap;html=1;" vertex="1" parent="hAHZ5cEmVnTdR4CNkjqM-23">
          <mxGeometry x="20" y="130" width="40" height="30" as="geometry" />
        </mxCell>
        <mxCell id="hAHZ5cEmVnTdR4CNkjqM-26" value="" style="endArrow=classic;html=1;rounded=0;" edge="1" parent="1">
          <mxGeometry width="50" height="50" relative="1" as="geometry">
            <mxPoint x="440" y="595" as="sourcePoint" />
            <mxPoint x="360" y="595" as="targetPoint" />
          </mxGeometry>
        </mxCell>
        <mxCell id="hAHZ5cEmVnTdR4CNkjqM-28" value="subbed" style="text;html=1;strokeColor=none;fillColor=none;align=center;verticalAlign=middle;whiteSpace=wrap;rounded=0;" vertex="1" parent="1">
          <mxGeometry x="210" y="585" width="60" height="30" as="geometry" />
        </mxCell>
        <mxCell id="hAHZ5cEmVnTdR4CNkjqM-29" value="" style="endArrow=classic;html=1;rounded=0;exitX=0;exitY=0.5;exitDx=0;exitDy=0;" edge="1" parent="1" source="hAHZ5cEmVnTdR4CNkjqM-45">
          <mxGeometry width="50" height="50" relative="1" as="geometry">
            <mxPoint x="280" y="380" as="sourcePoint" />
            <mxPoint x="200" y="375" as="targetPoint" />
          </mxGeometry>
        </mxCell>
        <mxCell id="hAHZ5cEmVnTdR4CNkjqM-30" value="subbed" style="text;html=1;strokeColor=none;fillColor=none;align=center;verticalAlign=middle;whiteSpace=wrap;rounded=0;" vertex="1" parent="1">
          <mxGeometry x="210" y="360" width="60" height="40" as="geometry" />
        </mxCell>
        <mxCell id="hAHZ5cEmVnTdR4CNkjqM-32" value="" style="endArrow=classic;html=1;rounded=0;" edge="1" parent="1">
          <mxGeometry width="50" height="50" relative="1" as="geometry">
            <mxPoint x="360" y="280" as="sourcePoint" />
            <mxPoint x="440" y="280" as="targetPoint" />
          </mxGeometry>
        </mxCell>
        <mxCell id="hAHZ5cEmVnTdR4CNkjqM-33" value="" style="endArrow=classic;html=1;rounded=0;exitX=1;exitY=0.5;exitDx=0;exitDy=0;" edge="1" parent="1" source="hAHZ5cEmVnTdR4CNkjqM-41">
          <mxGeometry width="50" height="50" relative="1" as="geometry">
            <mxPoint x="520" y="280" as="sourcePoint" />
            <mxPoint x="620" y="280" as="targetPoint" />
          </mxGeometry>
        </mxCell>
        <mxCell id="hAHZ5cEmVnTdR4CNkjqM-35" value="subbed" style="text;html=1;strokeColor=none;fillColor=none;align=center;verticalAlign=middle;whiteSpace=wrap;rounded=0;" vertex="1" parent="1">
          <mxGeometry x="530" y="365" width="60" height="30" as="geometry" />
        </mxCell>
      </root>
    </mxGraphModel>
  </diagram>
</mxfile>
